<svg width="223" height="161" viewBox="0 0 223 161" fill="none" xmlns="http://www.w3.org/2000/svg">
<rect x="104" y="9.00073" width="15" height="41" rx="7.5" fill="#0072CE"/>
<path d="M110.391 1.03351C110.791 0.51236 111.577 0.512361 111.977 1.03352L122.231 14.3845C122.737 15.0422 122.268 15.9936 121.438 15.9936H100.929C100.1 15.9936 99.631 15.0422 100.136 14.3845L110.391 1.03351Z" fill="#0072CE"/>
<rect x="9.00049" y="120.368" width="15" height="41" rx="7.5" transform="rotate(-90 9.00049 120.368)" fill="#0072CE"/>
<path d="M1.03303 113.977C0.511872 113.577 0.511873 112.791 1.03303 112.391L14.384 102.136C15.0417 101.631 15.9931 102.1 15.9931 102.929L15.9931 123.438C15.9931 124.268 15.0417 124.737 14.384 124.231L1.03303 113.977Z" fill="#0072CE"/>
<rect x="214" y="105" width="15" height="41" rx="7.5" transform="rotate(90 214 105)" fill="#0072CE"/>
<path d="M221.967 111.391C222.489 111.791 222.489 112.577 221.967 112.977L208.616 123.231C207.959 123.737 207.007 123.268 207.007 122.438L207.007 101.929C207.007 101.1 207.959 100.631 208.616 101.136L221.967 111.391Z" fill="#0072CE"/>
<rect x="178.941" y="36.3137" width="15" height="41" rx="7.5" transform="rotate(45 178.941 36.3137)" fill="#0072CE"/>
<path d="M189.094 35.1988C189.746 35.1133 190.301 35.6688 190.216 36.3204L188.026 53.012C187.918 53.8343 186.914 54.1755 186.327 53.589L171.825 39.0869C171.239 38.5005 171.58 37.4962 172.402 37.3883L189.094 35.1988Z" fill="#0072CE"/>
<rect width="15" height="41" rx="7.5" transform="matrix(-0.707107 0.707107 0.707107 0.707107 43.4731 36.3137)" fill="#0072CE"/>
<path d="M33.3205 35.1988C32.6689 35.1133 32.1135 35.6688 32.1989 36.3204L34.3884 53.012C34.4963 53.8343 35.5006 54.1755 36.0871 53.589L50.5892 39.0869C51.1756 38.5005 50.8344 37.4962 50.0121 37.3883L33.3205 35.1988Z" fill="#0072CE"/>
<path fill-rule="evenodd" clip-rule="evenodd" d="M112.008 136.912C125.765 136.912 136.916 125.761 136.916 112.004C136.916 98.2472 125.765 87.0956 112.008 87.0956C98.2511 87.0956 87.0995 98.2472 87.0995 112.004C87.0995 125.761 98.2511 136.912 112.008 136.912ZM147.81 89.9988C150.146 93.7882 151.861 97.9205 152.89 102.249L161.008 105.373V118.635L152.886 121.763C151.857 126.087 150.142 130.22 147.81 134.005L151.347 141.963L141.967 151.343L134.013 147.811C130.224 150.142 126.091 151.857 121.763 152.886L118.639 161.004H105.376L102.249 152.886C97.9244 151.853 93.7921 150.138 90.0068 147.807L82.0484 151.343L72.669 141.963L76.2011 134.009C73.8695 130.224 72.1545 126.087 71.1255 121.759L63.0078 118.635V105.373L71.1255 102.249C72.1545 97.9205 73.8695 93.7882 76.2051 90.0029L72.669 82.0445L82.0484 72.6692L90.0068 76.2012C93.7921 73.8697 97.9244 72.1547 102.249 71.1257L105.376 63.0039H118.639L121.763 71.1257C126.091 72.1547 130.224 73.8697 134.009 76.2012L141.967 72.6692L151.347 82.0445L147.81 89.9988Z" fill="#7CC6F2"/>
</svg>
