<svg width="227" height="220" viewBox="0 0 227 220" fill="none" xmlns="http://www.w3.org/2000/svg">
<g clip-path="url(#clip0_493_2122)">
<path d="M224.664 107.297H208.159C207.633 107.297 207.092 107.483 206.659 107.84L158.304 147.131C159.604 150.57 160.284 154.225 160.284 157.895C160.284 160.032 158.552 161.767 156.417 161.767H99.3539C97.2193 161.767 95.4868 160.032 95.4868 157.895C95.4868 155.758 97.2193 154.023 99.3539 154.023H152.21C151.823 151.824 151.127 149.702 150.121 147.72C146.27 140.1 138.551 135.345 129.982 135.345H110.105C109.254 135.345 108.434 135.067 107.769 134.555C76.3987 110.689 45.2297 140.069 33.4736 153.574L65.911 185.045H149.936C156.448 185.045 162.697 182.242 167.09 177.347L226.366 111.169C227.294 110.147 226.953 109.079 226.768 108.66C226.582 108.242 226.01 107.282 224.649 107.282L224.664 107.297Z" fill="#7CC6F2"/>
<path d="M0 164.462L59.136 220L74.3725 204.032L17.1855 148.556L0 164.462Z" fill="#7CC6F2"/>
<rect x="84" y="91" width="25" height="29" rx="12.5" fill="#DDF2FF"/>
<rect x="120" y="64" width="25" height="56" rx="12.5" fill="#0072CE"/>
<rect x="159" y="37" width="25" height="80" rx="12.5" fill="#0072CE"/>
<path d="M170.725 27.9491C171.125 27.4589 171.875 27.4589 172.275 27.9491L187.921 47.1177C188.454 47.7708 187.99 48.75 187.146 48.75H155.854C155.01 48.75 154.546 47.7708 155.079 47.1177L170.725 27.9491Z" fill="#0072CE"/>
<path d="M131.725 52.9491C132.125 52.4589 132.875 52.4589 133.275 52.9491L148.921 72.1177C149.454 72.7708 148.99 73.75 148.146 73.75H116.854C116.01 73.75 115.546 72.7708 116.079 72.1177L131.725 52.9491Z" fill="#0072CE"/>
<path d="M95.7253 81.9491C96.1254 81.4589 96.8746 81.4589 97.2747 81.9491L112.921 101.118C113.454 101.771 112.99 102.75 112.146 102.75H80.8536C80.0105 102.75 79.5458 101.771 80.0789 101.118L95.7253 81.9491Z" fill="#DDF2FF"/>
</g>
<defs>
<clipPath id="clip0_493_2122">
<rect width="227" height="220" fill="white"/>
</clipPath>
</defs>
</svg>
