<svg width="159" height="137" viewBox="0 0 159 137" fill="none" xmlns="http://www.w3.org/2000/svg">
<path d="M65.7969 32.1963C71.7652 21.8749 86.6657 21.8747 92.6338 32.1963L137.182 109.241C143.156 119.574 135.7 132.5 123.764 132.5H34.667C22.7307 132.5 15.2733 119.575 21.248 109.241L65.7969 32.1963Z" fill="#003087" stroke="#0072CE" stroke-width="9"/>
<path d="M73.696 100.112C73.4094 97.1307 73.5527 94.608 74.126 92.544C74.6994 90.4227 75.4734 88.6167 76.448 87.126C77.48 85.578 78.6267 84.2593 79.888 83.17C81.2067 82.0233 82.4107 80.934 83.5 79.902C84.6467 78.87 85.5927 77.8093 86.338 76.72C87.0834 75.5733 87.456 74.226 87.456 72.678C87.456 70.6713 86.8827 69.066 85.736 67.862C84.6467 66.658 82.6687 66.056 79.802 66.056C78.8847 66.056 77.91 66.1707 76.878 66.4C75.846 66.572 74.814 66.8587 73.782 67.26C72.75 67.604 71.7467 68.034 70.772 68.55C69.8547 69.0087 69.0234 69.496 68.278 70.012L63.978 61.756C66.1567 60.2653 68.6507 59.0327 71.46 58.058C74.3267 57.0833 77.7667 56.596 81.78 56.596C87.1694 56.596 91.3834 57.9147 94.422 60.552C97.4607 63.132 98.98 66.6293 98.98 71.044C98.98 73.968 98.5787 76.4047 97.776 78.354C97.0307 80.246 96.0847 81.88 94.938 83.256C93.7914 84.5747 92.53 85.75 91.154 86.782C89.778 87.814 88.5167 88.932 87.37 90.136C86.2234 91.2827 85.2487 92.63 84.446 94.178C83.6434 95.726 83.242 97.704 83.242 100.112H73.696ZM71.976 112.324C71.976 110.317 72.6067 108.741 73.868 107.594C75.1294 106.39 76.792 105.788 78.856 105.788C81.0347 105.788 82.7547 106.39 84.016 107.594C85.2774 108.741 85.908 110.317 85.908 112.324C85.908 114.331 85.2774 115.936 84.016 117.14C82.7547 118.344 81.0347 118.946 78.856 118.946C76.792 118.946 75.1294 118.344 73.868 117.14C72.6067 115.936 71.976 114.331 71.976 112.324Z" fill="#FFA827"/>
</svg>
