<svg width="214" height="218" viewBox="0 0 214 218" fill="none" xmlns="http://www.w3.org/2000/svg">
<path d="M196.759 91.8182C192.457 91.8182 188.314 93.4386 184.999 96.425C183.183 98.0771 180.697 98.7761 178.275 98.3631C175.853 97.9183 173.781 96.425 172.634 94.2328C172.029 93.0891 171.71 91.7865 171.71 90.5156V89.9755C171.71 89.9755 171.71 89.6896 171.71 89.5307V42.0648H125.468C122.313 42.0648 119.477 40.2221 118.202 37.3627C116.927 34.5033 117.469 31.1356 119.572 28.8163C122.536 25.5439 124.193 21.3819 124.193 17.0928C124.193 7.65682 116.481 0 106.984 0C97.4871 0 89.8386 7.68859 89.8386 17.0928C89.8386 21.3819 91.4639 25.5121 94.4596 28.8163C96.5629 31.1356 97.1047 34.5033 95.8299 37.3627C94.5552 40.2221 91.687 42.0648 88.5638 42.0648H42.2582V90.8016C42.1308 93.8834 40.2505 96.6474 37.3823 97.8547C34.5141 99.062 31.2316 98.5219 28.9051 96.4568C25.6226 93.5021 21.4478 91.85 17.1455 91.85C7.68042 91.85 0 99.5386 0 109.006C0 118.474 7.71229 126.099 17.1455 126.099C21.4478 126.099 25.5908 124.479 28.9051 121.492C32.1876 118.538 37.2229 118.824 40.1549 122.064C41.6209 123.685 42.2901 125.718 42.1945 127.719C42.1945 127.974 42.2264 128.228 42.2264 128.514V175.98H88.4682C91.6232 175.98 94.4914 177.854 95.7662 180.714C97.041 183.573 96.4992 186.941 94.364 189.292C92.2925 191.516 89.8705 195.36 89.8705 200.825C89.8705 210.261 97.5827 217.917 107.016 217.917C116.449 217.917 124.225 210.229 124.225 200.825C124.225 195.328 121.771 191.516 119.732 189.292C117.596 186.972 117.055 183.605 118.329 180.714C119.604 177.822 122.472 175.98 125.627 175.98H171.806V128.514C171.806 128.514 171.806 128.228 171.806 128.069V127.37C171.806 123.716 174.291 120.539 177.861 119.65C180.601 118.982 183.438 119.808 185.382 121.715C188.632 124.542 192.712 126.067 196.855 126.067C206.32 126.067 214 118.379 214 108.911C214 99.4433 206.288 91.8182 196.855 91.8182H196.759ZM106.888 162.795C77.1229 162.795 52.8706 138.649 52.8706 108.943C52.8706 79.2369 77.091 55.091 106.888 55.091C136.686 55.091 160.906 79.2369 160.906 108.943C160.906 138.649 136.686 162.795 106.888 162.795Z" fill="#7CC6F2"/>
<circle cx="107" cy="109" r="41" fill="#0072CE"/>
<path d="M95.4688 111.47C94.2832 110.311 92.3841 110.229 91.1115 111.339C89.7678 112.51 89.6219 114.557 90.7858 115.909L96.5446 122.602C96.6284 122.698 96.7313 122.806 96.8273 122.894C98.2347 124.186 100.415 124.085 101.699 122.668L101.729 122.635L123.627 98.4674C124.564 97.4299 124.55 95.8189 123.565 94.8033C122.542 93.7492 120.863 93.73 119.815 94.7605L99.1508 115.091L95.4688 111.471V111.47Z" fill="#EAF7FF"/>
</svg>
