<svg width="183" height="196" viewBox="0 0 183 196" fill="none" xmlns="http://www.w3.org/2000/svg">
<path d="M88.931 80.7981C90.2254 79.9921 91.8654 79.9921 93.1598 80.7981L179.609 134.631C182.13 136.201 182.121 139.875 179.592 141.432L93.1434 194.689C91.857 195.481 90.2338 195.481 88.9474 194.689L2.49866 141.432C-0.0301406 139.875 -0.0389889 136.201 2.48226 134.631L88.931 80.7981Z" fill="#DDF2FF" fill-opacity="0.63"/>
<path d="M89.931 40.7981C91.2254 39.9921 92.8654 39.9921 94.1598 40.7981L180.609 94.6314C183.13 96.2014 183.121 99.8746 180.592 101.432L94.1434 154.689C92.857 155.481 91.2338 155.481 89.9474 154.689L3.49866 101.432C0.969859 99.8746 0.961011 96.2014 3.48226 94.6314L89.931 40.7981Z" fill="#7CC6F2"/>
<path d="M88.931 0.798134C90.2254 -0.00790662 91.8654 -0.00790662 93.1598 0.798134L179.609 54.6314C182.13 56.2014 182.121 59.8746 179.592 61.4325L93.1434 114.689C91.857 115.481 90.2338 115.481 88.9474 114.689L2.49866 61.4325C-0.0301406 59.8746 -0.0389889 56.2014 2.48226 54.6314L88.931 0.798134Z" fill="#0072CE"/>
</svg>
