<?xml version="1.0" encoding="UTF-8"?>
<svg id="Layer_1" xmlns="http://www.w3.org/2000/svg" xmlns:xodm="http://www.corel.com/coreldraw/odm/2003" version="1.1" viewBox="0 0 1011.7 760">
  <!-- Generator: Adobe Illustrator 29.8.1, SVG Export Plug-In . SVG Version: 2.1.1 Build 2)  -->
  <defs>
    <style>
      .st0, .st1 {
        fill: #5a8cff;
      }

      .st1, .st2, .st3 {
        fill-rule: evenodd;
      }

      .st4, .st2 {
        fill: #2264dc;
      }

      .st3, .st5 {
        fill: #01b4d2;
      }
    </style>
  </defs>
  <g id="Layer_x5F_1">
    <g id="_2169605804304">
      <path class="st5" d="M6.2,322.7h327v-48.5c0-4.8,2-9.2,5.1-12.4,3.2-3.2,7.6-5.1,12.4-5.1h192.9c4.6,0,8.8-1.9,11.8-4.9,3-3,4.9-7.2,4.9-11.8V6.2h.9v233.7c0,4.8-2,9.2-5.1,12.4-3.2,3.2-7.6,5.1-12.4,5.1h-192.9c-4.6,0-8.8,1.9-11.8,4.9-3,3-4.9,7.2-4.9,11.8v48.5h521.1c4.8,0,9.2,2,12.4,5.1,3.2,3.2,5.1,7.6,5.1,12.4v203.4c0,4.8-2,9.2-5.1,12.4-3.2,3.2-7.6,5.1-12.4,5.1h-504.4c-4.8,0-9.2-2-12.4-5.1-3.2-3.2-5.1-7.6-5.1-12.4v-220.1H6.2v-.9h0ZM855.2,323.5H334.1v220.1c0,4.6,1.9,8.8,4.9,11.8,3,3,7.2,4.9,11.8,4.9h504.4c4.6,0,8.8-1.9,11.8-4.9,3-3,4.9-7.2,4.9-11.8v-203.5c0-4.6-1.9-8.8-4.9-11.8-3-3-7.2-4.9-11.8-4.9Z"/>
      <path class="st3" d="M6.2,316.8c3.4,0,6.2,2.8,6.2,6.2s-2.8,6.2-6.2,6.2S0,326.5,0,323.1s2.8-6.2,6.2-6.2Z"/>
      <path class="st3" d="M560.7,0c3.4,0,6.2,2.8,6.2,6.2s-2.8,6.2-6.2,6.2-6.2-2.8-6.2-6.2,2.8-6.2,6.2-6.2Z"/>
      <path class="st0" d="M997.4,155.1h-356.3c-4.6,0-8.8,1.9-11.8,4.9-3,3-4.9,7.2-4.9,11.8v59.7c0,4.6,1.9,8.8,4.9,11.8,3,3,7.2,4.9,11.8,4.9h55.7c4.8,0,9.2,2,12.4,5.1,3.2,3.2,5.1,7.6,5.1,12.4v480h-.9v-480c0-4.6-1.9-8.8-4.9-11.8-3-3-7.2-4.9-11.8-4.9h-55.7c-4.8,0-9.2-2-12.4-5.1-3.2-3.2-5.1-7.6-5.1-12.4v-59.7c0-4.8,2-9.2,5.1-12.4,3.2-3.2,7.6-5.1,12.4-5.1h356.3v.9h0Z"/>
      <path class="st1" d="M997.4,140.4c7.9,0,14.3,6.4,14.3,14.3s-6.4,14.3-14.3,14.3-14.3-6.4-14.3-14.3,6.4-14.3,14.3-14.3Z"/>
      <path class="st1" d="M713.9,731.4c7.9,0,14.3,6.4,14.3,14.3s-6.4,14.3-14.3,14.3-14.3-6.4-14.3-14.3,6.4-14.3,14.3-14.3Z"/>
      <path class="st1" d="M713.9,314.2c4.9,0,8.9,4,8.9,8.9s-4,8.9-8.9,8.9-8.9-4-8.9-8.9,4-8.9,8.9-8.9Z"/>
      <path class="st4" d="M191,385.8h222.7c5.2,0,9.9,2.1,13.3,5.5,3.4,3.4,5.5,8.1,5.5,13.3v103c0,4.2,1.7,8.1,4.5,10.9,2.8,2.8,6.6,4.5,10.9,4.5h446.3v3.4h-446.3c-5.2,0-9.9-2.1-13.3-5.5-3.4-3.4-5.5-8.1-5.5-13.3v-103c0-4.2-1.7-8.1-4.5-10.9-2.8-2.8-6.6-4.5-10.9-4.5h-222.7v-3.4h0Z"/>
      <path class="st2" d="M191,373.2c7.9,0,14.3,6.4,14.3,14.3s-6.4,14.3-14.3,14.3-14.3-6.4-14.3-14.3,6.4-14.3,14.3-14.3Z"/>
      <path class="st2" d="M894.2,518.4c3.4,0,6.2,2.8,6.2,6.2s-2.8,6.2-6.2,6.2-6.2-2.8-6.2-6.2,2.8-6.2,6.2-6.2Z"/>
      <path class="st4" d="M295.6,84.7h428.9c5.2,0,9.9,2.1,13.3,5.5,3.4,3.4,5.5,8.1,5.5,13.3v165.5c0,5.2-2.1,9.9-5.5,13.3-3.4,3.4-8.1,5.5-13.3,5.5h-201.4c-5.2,0-9.9-2.1-13.3-5.5-3.4-3.4-5.5-8.1-5.5-13.3v-59.7c0-4.2-1.7-8.1-4.5-10.9-2.8-2.8-6.6-4.5-10.9-4.5h-83.6c-4.2,0-8.1,1.7-10.9,4.5-2.8,2.8-4.5,6.6-4.5,10.9v312.3h-3.4V209.3c0-5.2,2.1-9.9,5.5-13.3,3.4-3.4,8.1-5.5,13.3-5.5h83.6c5.2,0,9.9,2.1,13.3,5.5,3.4,3.4,5.5,8.1,5.5,13.3v59.7c0,4.2,1.7,8.1,4.5,10.9,2.8,2.8,6.6,4.5,10.9,4.5h201.4c4.2,0,8.1-1.7,10.9-4.5,2.8-2.8,4.5-6.6,4.5-10.9V103.5c0-4.2-1.7-8.1-4.5-10.9-2.8-2.8-6.6-4.5-10.9-4.5h-428.9v-3.4h0Z"/>
      <path class="st2" d="M388.2,515.4c-3.4,0-6.2,2.8-6.2,6.2s2.8,6.2,6.2,6.2,6.2-2.8,6.2-6.2-2.8-6.2-6.2-6.2Z"/>
      <path class="st2" d="M295.6,77.5c-4.9,0-8.9,4-8.9,8.9s4,8.9,8.9,8.9,8.9-4,8.9-8.9-4-8.9-8.9-8.9Z"/>
      <path class="st0" d="M966.4,631.6v-269.8c0-4.6-1.9-8.8-4.9-11.8-3-3-7.2-4.9-11.8-4.9h-89.6c-4.6,0-8.8,1.9-11.8,4.9-3,3-4.9,7.2-4.9,11.8v95.6c0,4.8-2,9.2-5.1,12.4-3.2,3.2-7.6,5.1-12.4,5.1h-255.3c-4.6,0-8.8,1.9-11.8,4.9-3,3-4.9,7.2-4.9,11.8v91.6c0,4.8-2,9.2-5.1,12.4-3.2,3.2-7.6,5.1-12.4,5.1H96.4v-.9h440.1c4.6,0,8.8-1.9,11.8-4.9s4.9-7.2,4.9-11.8v-91.6c0-4.8,2-9.2,5.1-12.4,3.2-3.2,7.6-5.1,12.4-5.1h255.3c4.6,0,8.8-1.9,11.8-4.9s4.9-7.2,4.9-11.8v-95.6c0-4.8,2-9.2,5.1-12.4,3.2-3.2,7.6-5.1,12.4-5.1h89.6c4.8,0,9.2,2,12.4,5.1,3.2,3.2,5.1,7.6,5.1,12.4v269.8h-.9Z"/>
      <path class="st1" d="M96.4,591.3c4.9,0,8.9,4,8.9,8.9s-4,8.9-8.9,8.9-8.9-4-8.9-8.9,4-8.9,8.9-8.9Z"/>
      <path class="st1" d="M966.8,622.6c4.9,0,8.9,4,8.9,8.9s-4,8.9-8.9,8.9-8.9-4-8.9-8.9,4-8.9,8.9-8.9Z"/>
      <path class="st3" d="M333.6,304.3c10.4,0,18.8,8.4,18.8,18.8s-8.4,18.8-18.8,18.8-18.8-8.4-18.8-18.8,8.4-18.8,18.8-18.8h0Z"/>
      <path class="st0" d="M647.8,413.2h-356.3c-4.6,0-8.8,1.9-11.8,4.9-3,3-4.9,7.2-4.9,11.8v59.7c0,4.6,1.9,8.8,4.9,11.8,3,3,7.2,4.9,11.8,4.9h55.7c4.8,0,9.2,2,12.4,5.1,3.2,3.2,5.1,7.6,5.1,12.4v217.8h-.9v-217.8c0-4.6-1.9-8.8-4.9-11.8-3-3-7.2-4.9-11.8-4.9h-55.7c-4.8,0-9.2-2-12.4-5.1-3.2-3.2-5.1-7.6-5.1-12.4v-59.7c0-4.8,2-9.2,5.1-12.4,3.2-3.2,7.6-5.1,12.4-5.1h356.3v.9Z"/>
      <path class="st1" d="M647.8,398.4c7.9,0,14.3,6.4,14.3,14.3s-6.4,14.3-14.3,14.3-14.3-6.4-14.3-14.3,6.4-14.3,14.3-14.3Z"/>
      <path class="st1" d="M364.3,727.1c7.9,0,14.3,6.4,14.3,14.3s-6.4,14.3-14.3,14.3-14.3-6.4-14.3-14.3,6.4-14.3,14.3-14.3Z"/>
      <path class="st0" d="M788.9,75.5v356.3c0,4.8-2,9.2-5.1,12.4-3.2,3.2-7.6,5.1-12.4,5.1h-59.7c-4.8,0-9.2-2-12.4-5.1-3.2-3.2-5.1-7.6-5.1-12.4v-55.7c0-4.6-1.9-8.8-4.9-11.8-3-3-7.2-4.9-11.8-4.9h-217.8v-.9h217.8c4.8,0,9.2,2,12.4,5.1,3.2,3.2,5.1,7.6,5.1,12.4v55.7c0,4.6,1.9,8.8,4.9,11.8,3,3,7.2,4.9,11.8,4.9h59.7c4.6,0,8.8-1.9,11.8-4.9,3-3,4.9-7.2,4.9-11.8V75.5h.9Z"/>
      <path class="st1" d="M802.8,75.5c0-7.9-6.4-14.3-14.3-14.3s-14.3,6.4-14.3,14.3,6.4,14.3,14.3,14.3,14.3-6.4,14.3-14.3Z"/>
      <path class="st1" d="M474.1,359c0-7.9-6.4-14.3-14.3-14.3s-14.3,6.4-14.3,14.3,6.4,14.3,14.3,14.3,14.3-6.4,14.3-14.3Z"/>
      <path class="st5" d="M518.7,383.4v356.3c0,4.6,1.9,8.8,4.9,11.8,3,3,7.2,4.9,11.8,4.9h59.7c4.6,0,8.8-1.9,11.8-4.9,3-3,4.9-7.2,4.9-11.8v-55.7c0-4.8,2-9.2,5.1-12.4,3.2-3.2,7.6-5.1,12.4-5.1h217.8v.9h-217.8c-4.6,0-8.8,1.9-11.8,4.9-3,3-4.9,7.2-4.9,11.8v55.7c0,4.8-2,9.2-5.1,12.4s-7.6,5.1-12.4,5.1h-59.7c-4.8,0-9.2-2-12.4-5.1s-5.1-7.6-5.1-12.4v-356.3h.9Z"/>
      <path class="st3" d="M504,383.4c0-7.9,6.4-14.3,14.3-14.3s14.3,6.4,14.3,14.3-6.4,14.3-14.3,14.3-14.3-6.4-14.3-14.3Z"/>
      <path class="st3" d="M832.6,666.9c0-7.9,6.4-14.3,14.3-14.3s14.3,6.4,14.3,14.3-6.4,14.3-14.3,14.3-14.3-6.4-14.3-14.3Z"/>
      <path class="st1" d="M713.9,510.3c7.9,0,14.3,6.4,14.3,14.3s-6.4,14.3-14.3,14.3-14.3-6.4-14.3-14.3,6.4-14.3,14.3-14.3Z"/>
    </g>
  </g>
</svg>