<?xml version="1.0" encoding="UTF-8"?>
<svg id="Layer_1" xmlns="http://www.w3.org/2000/svg" xmlns:xodm="http://www.corel.com/coreldraw/odm/2003" version="1.1" viewBox="0 0 1051.6 879.6">
  <!-- Generator: Adobe Illustrator 29.8.1, SVG Export Plug-In . SVG Version: 2.1.1 Build 2)  -->
  <defs>
    <style>
      .st0, .st1 {
        fill: #5a8cff;
      }

      .st1, .st2, .st3 {
        fill-rule: evenodd;
      }

      .st4, .st2 {
        fill: #2264dc;
      }

      .st3, .st5 {
        fill: #01b4d2;
      }
    </style>
  </defs>
  <g id="Layer_x5F_1">
    <g id="_2169605775216">
      <path class="st5" d="M6.2,468.7h327v-220.1c0-4.8,2-9.2,5.1-12.4,3.2-3.2,7.6-5.1,12.4-5.1h504.4c4.8,0,9.2,2,12.4,5.1,3.2,3.2,5.1,7.6,5.1,12.4v203.4c0,4.8-2,9.2-5.1,12.4-3.2,3.2-7.6,5.1-12.4,5.1H334.1v48.5c0,4.6,1.9,8.8,4.9,11.8,3,3,7.2,4.9,11.8,4.9h192.9c4.8,0,9.2,2,12.4,5.1,3.2,3.2,5.1,7.6,5.1,12.4v233.7h-.9v-233.7c0-4.6-1.9-8.8-4.9-11.8-3-3-7.2-4.9-11.8-4.9h-192.9c-4.8,0-9.2-2-12.4-5.1-3.2-3.2-5.1-7.6-5.1-12.4v-48.5H6.2v-.9h0ZM334.1,468.7h521.1c4.6,0,8.8-1.9,11.8-4.9,3-3,4.9-7.2,4.9-11.8v-203.4c0-4.6-1.9-8.8-4.9-11.8-3-3-7.2-4.9-11.8-4.9h-504.4c-4.6,0-8.8,1.9-11.8,4.9s-4.9,7.2-4.9,11.8v220.1h0Z"/>
      <path class="st3" d="M6.2,475.4c3.4,0,6.2-2.8,6.2-6.2s-2.8-6.2-6.2-6.2S0,465.7,0,469.1s2.8,6.2,6.2,6.2Z"/>
      <path class="st3" d="M560.7,792.2c3.4,0,6.2-2.8,6.2-6.2s-2.8-6.2-6.2-6.2-6.2,2.8-6.2,6.2,2.8,6.2,6.2,6.2Z"/>
      <path class="st0" d="M759.2,732.1h-356.3c-4.8,0-9.2-2-12.4-5.1s-5.1-7.6-5.1-12.4v-59.7c0-4.8,2-9.2,5.1-12.4,3.2-3.2,7.6-5.1,12.4-5.1h55.7c4.6,0,8.8-1.9,11.8-4.9,3-3,4.9-7.2,4.9-11.8V140.7h.9v480c0,4.8-2,9.2-5.1,12.4-3.2,3.2-7.6,5.1-12.4,5.1h-55.7c-4.6,0-8.8,1.9-11.8,4.9-3,3-4.9,7.2-4.9,11.8v59.7c0,4.6,1.9,8.8,4.9,11.8s7.2,4.9,11.8,4.9h356.3v.9h0Z"/>
      <path class="st1" d="M759.2,746c7.9,0,14.3-6.4,14.3-14.3s-6.4-14.3-14.3-14.3-14.3,6.4-14.3,14.3,6.4,14.3,14.3,14.3Z"/>
      <path class="st1" d="M475.7,155c7.9,0,14.3-6.4,14.3-14.3s-6.4-14.3-14.3-14.3-14.3,6.4-14.3,14.3,6.4,14.3,14.3,14.3Z"/>
      <path class="st1" d="M713.9,478.1c4.9,0,8.9-4,8.9-8.9s-4-8.9-8.9-8.9-8.9,4-8.9,8.9,4,8.9,8.9,8.9Z"/>
      <path class="st4" d="M191,403h222.7c4.2,0,8.1-1.7,10.9-4.5,2.8-2.8,4.5-6.6,4.5-10.9v-103c0-5.2,2.1-9.9,5.5-13.3s8.1-5.5,13.3-5.5h446.3v3.4h-446.3c-4.2,0-8.1,1.7-10.9,4.5-2.8,2.8-4.5,6.6-4.5,10.9v103c0,5.2-2.1,9.9-5.5,13.3s-8.1,5.5-13.3,5.5h-222.7v-3.4h0Z"/>
      <path class="st2" d="M191,419.1c7.9,0,14.3-6.4,14.3-14.3s-6.4-14.3-14.3-14.3-14.3,6.4-14.3,14.3,6.4,14.3,14.3,14.3Z"/>
      <path class="st2" d="M894.2,273.8c3.4,0,6.2-2.8,6.2-6.2s-2.8-6.2-6.2-6.2-6.2,2.8-6.2,6.2,2.8,6.2,6.2,6.2Z"/>
      <path class="st1" d="M670.1,353.3c7.9,0,14.3-6.4,14.3-14.3s-6.4-14.3-14.3-14.3-14.3,6.4-14.3,14.3,6.4,14.3,14.3,14.3Z"/>
      <path class="st4" d="M155.5,697.2h428.9c4.2,0,8.1-1.7,10.9-4.5,2.8-2.8,4.5-6.6,4.5-10.9v-165.5c0-4.2-1.7-8.1-4.5-10.9-2.8-2.8-6.6-4.5-10.9-4.5h-201.4c-4.2,0-8.1,1.7-10.9,4.5-2.8,2.8-4.5,6.6-4.5,10.9v59.7c0,5.2-2.1,9.9-5.5,13.3-3.4,3.4-8.1,5.5-13.3,5.5h-83.6c-5.2,0-9.9-2.1-13.3-5.5s-5.5-8.1-5.5-13.3v-312.3h3.4v312.3c0,4.2,1.7,8.1,4.5,10.9,2.8,2.8,6.6,4.5,10.9,4.5h83.6c4.2,0,8.1-1.7,10.9-4.5,2.8-2.8,4.5-6.6,4.5-10.9v-59.7c0-5.2,2.1-9.9,5.5-13.3s8.1-5.5,13.3-5.5h201.4c5.2,0,9.9,2.1,13.3,5.5s5.5,8.1,5.5,13.3v165.5c0,5.2-2.1,9.9-5.5,13.3s-8.1,5.5-13.3,5.5H155.5v-3.4h0Z"/>
      <path class="st2" d="M248.1,269.9c-3.4,0-6.2-2.8-6.2-6.2s2.8-6.2,6.2-6.2,6.2,2.8,6.2,6.2-2.8,6.2-6.2,6.2Z"/>
      <path class="st2" d="M155.5,707.8c-4.9,0-8.9-4-8.9-8.9s4-8.9,8.9-8.9,8.9,4,8.9,8.9-4,8.9-8.9,8.9Z"/>
      <path class="st0" d="M913.9,43.2v386.2c0,4.8-2,9.2-5.1,12.4-3.2,3.2-7.6,5.1-12.4,5.1h-89.6c-4.8,0-9.2-2-12.4-5.1-3.2-3.2-5.1-7.6-5.1-12.4v-95.6c0-4.6-1.9-8.8-4.9-11.8-3-3-7.2-4.9-11.8-4.9h-255.3c-4.8,0-9.2-2-12.4-5.1-3.2-3.2-5.1-7.6-5.1-12.4v-91.6c0-4.6-1.9-8.8-4.9-11.8-3-3-7.2-4.9-11.8-4.9H43v-.9h440.1c4.8,0,9.2,2,12.4,5.1,3.2,3.2,5.1,7.6,5.1,12.4v91.6c0,4.6,1.9,8.8,4.9,11.8,3,3,7.2,4.9,11.8,4.9h255.3c4.8,0,9.2,2,12.4,5.1,3.2,3.2,5.1,7.6,5.1,12.4v95.6c0,4.6,1.9,8.8,4.9,11.8,3,3,7.2,4.9,11.8,4.9h89.6c4.6,0,8.8-1.9,11.8-4.9,3-3,4.9-7.2,4.9-11.8V43.2h.9Z"/>
      <path class="st1" d="M43,199.9c4.9,0,8.9-4,8.9-8.9s-4-8.9-8.9-8.9-8.9,4-8.9,8.9,4,8.9,8.9,8.9Z"/>
      <path class="st1" d="M913.4,52.2c4.9,0,8.9-4,8.9-8.9s-4-8.9-8.9-8.9-8.9,4-8.9,8.9,4,8.9,8.9,8.9Z"/>
      <path class="st3" d="M333.6,487.9c10.4,0,18.8-8.4,18.8-18.8s-8.4-18.8-18.8-18.8-18.8,8.4-18.8,18.8,8.4,18.8,18.8,18.8Z"/>
      <path class="st0" d="M1037.3,343.4h-356.3c-4.8,0-9.2-2-12.4-5.1-3.2-3.2-5.1-7.6-5.1-12.4v-59.7c0-4.8,2-9.2,5.1-12.4s7.6-5.1,12.4-5.1h55.7c4.6,0,8.8-1.9,11.8-4.9s4.9-7.2,4.9-11.8V14.3h.9v217.8c0,4.8-2,9.2-5.1,12.4s-7.6,5.1-12.4,5.1h-55.7c-4.6,0-8.8,1.9-11.8,4.9-3,3-4.9,7.2-4.9,11.8v59.7c0,4.6,1.9,8.8,4.9,11.8,3,3,7.2,4.9,11.8,4.9h356.3v.9h0Z"/>
      <path class="st1" d="M1037.3,357.3c7.9,0,14.3-6.4,14.3-14.3s-6.4-14.3-14.3-14.3-14.3,6.4-14.3,14.3,6.4,14.3,14.3,14.3Z"/>
      <path class="st1" d="M753.8,28.6c7.9,0,14.3-6.4,14.3-14.3s-6.4-14.3-14.3-14.3-14.3,6.4-14.3,14.3,6.4,14.3,14.3,14.3Z"/>
      <path class="st0" d="M535.4,624.4h356.3c4.6,0,8.8-1.9,11.8-4.9,3-3,4.9-7.2,4.9-11.8v-59.7c0-4.6-1.9-8.8-4.9-11.8-3-3-7.2-4.9-11.8-4.9h-55.7c-4.8,0-9.2-2-12.4-5.1-3.2-3.2-5.1-7.6-5.1-12.4v-217.8h.9v217.8c0,4.6,1.9,8.8,4.9,11.8,3,3,7.2,4.9,11.8,4.9h55.7c4.8,0,9.2,2,12.4,5.1,3.2,3.2,5.1,7.6,5.1,12.4v59.7c0,4.8-2,9.2-5.1,12.4s-7.6,5.1-12.4,5.1h-356.3v-.9h0Z"/>
      <path class="st1" d="M535.4,639.1c-7.9,0-14.3-6.4-14.3-14.3s6.4-14.3,14.3-14.3,14.3,6.4,14.3,14.3-6.4,14.3-14.3,14.3Z"/>
      <path class="st1" d="M818.9,310.4c-7.9,0-14.3-6.4-14.3-14.3s6.4-14.3,14.3-14.3,14.3,6.4,14.3,14.3-6.4,14.3-14.3,14.3Z"/>
      <path class="st5" d="M638,865.3v-356.3c0-4.8,2-9.2,5.1-12.4,3.2-3.2,7.6-5.1,12.4-5.1h59.7c4.8,0,9.2,2,12.4,5.1,3.2,3.2,5.1,7.6,5.1,12.4v55.7c0,4.6,1.9,8.8,4.9,11.8,3,3,7.2,4.9,11.8,4.9h217.8v.9h-217.8c-4.8,0-9.2-2-12.4-5.1-3.2-3.2-5.1-7.6-5.1-12.4v-55.7c0-4.6-1.9-8.8-4.9-11.8-3-3-7.2-4.9-11.8-4.9h-59.7c-4.6,0-8.8,1.9-11.8,4.9-3,3-4.9,7.2-4.9,11.8v356.3h-.9Z"/>
      <path class="st3" d="M624.1,865.3c0,7.9,6.4,14.3,14.3,14.3s14.3-6.4,14.3-14.3-6.4-14.3-14.3-14.3-14.3,6.4-14.3,14.3Z"/>
      <path class="st3" d="M952.8,581.8c0,7.9,6.4,14.3,14.3,14.3s14.3-6.4,14.3-14.3-6.4-14.3-14.3-14.3-14.3,6.4-14.3,14.3Z"/>
      <path class="st5" d="M428.1,429.4h190.2c2.6,0,5,1.1,6.7,2.8,1.7,1.7,2.8,4.1,2.8,6.7v31.8c0,2.6-1.1,5-2.8,6.7-1.7,1.7-4.1,2.8-6.7,2.8h-29.7c-2.4,0-4.6,1-6.1,2.6s-2.6,3.7-2.6,6.1v116.2h-.9v-116.2c0-2.6,1.1-5,2.8-6.7,1.7-1.7,4.1-2.8,6.7-2.8h29.7c2.4,0,4.6-1,6.1-2.6s2.6-3.7,2.6-6.1v-31.8c0-2.4-1-4.6-2.6-6.1s-3.7-2.6-6.1-2.6h-190.2v-.9h0Z"/>
      <path class="st3" d="M428.1,422.2c-4.2,0-7.6,3.4-7.6,7.6s3.4,7.6,7.6,7.6,7.6-3.4,7.6-7.6-3.4-7.6-7.6-7.6Z"/>
      <path class="st3" d="M579.4,597.6c-4.2,0-7.6,3.4-7.6,7.6s3.4,7.6,7.6,7.6,7.6-3.4,7.6-7.6-3.4-7.6-7.6-7.6Z"/>
    </g>
  </g>
</svg>