<?xml version="1.0" encoding="UTF-8"?>
<svg id="Layer_1" xmlns="http://www.w3.org/2000/svg" xmlns:xodm="http://www.corel.com/coreldraw/odm/2003" version="1.1" viewBox="0 0 1042.2 920.2">
  <!-- Generator: Adobe Illustrator 29.8.1, SVG Export Plug-In . SVG Version: 2.1.1 Build 2)  -->
  <defs>
    <style>
      .st0, .st1 {
        fill: #5a8cff;
      }

      .st1, .st2, .st3 {
        fill-rule: evenodd;
      }

      .st4, .st2 {
        fill: #2264dc;
      }

      .st3, .st5 {
        fill: #01b4d2;
      }
    </style>
  </defs>
  <g id="Layer_x5F_1">
    <g id="_2169605799984">
      <path class="st5" d="M6.2,256h327V35.9c0-4.8,2-9.2,5.1-12.4s7.6-5.1,12.4-5.1h504.4c4.8,0,9.2,2,12.4,5.1,3.2,3.2,5.1,7.6,5.1,12.4v203.5c0,4.8-2,9.2-5.1,12.4s-7.6,5.1-12.4,5.1H334.1v48.5c0,4.6,1.9,8.8,4.9,11.8,3,3,7.2,4.9,11.8,4.9h192.9c4.8,0,9.2,2,12.4,5.1s5.1,7.6,5.1,12.4v233.7h-.9v-233.7c0-4.6-1.9-8.8-4.9-11.8s-7.2-4.9-11.8-4.9h-192.9c-4.8,0-9.2-2-12.4-5.1s-5.1-7.6-5.1-12.4v-48.5H6.2v-.9h0ZM334.1,256h521.1c4.6,0,8.8-1.9,11.8-4.9,3-3,4.9-7.2,4.9-11.8V35.9c0-4.6-1.9-8.8-4.9-11.8-3-3-7.2-4.9-11.8-4.9h-504.4c-4.6,0-8.8,1.9-11.8,4.9s-4.9,7.2-4.9,11.8v220.1h0Z"/>
      <path class="st3" d="M6.2,262.7c3.4,0,6.2-2.8,6.2-6.2s-2.8-6.2-6.2-6.2S0,253,0,256.4s2.8,6.2,6.2,6.2Z"/>
      <path class="st3" d="M560.7,579.5c3.4,0,6.2-2.8,6.2-6.2s-2.8-6.2-6.2-6.2-6.2,2.8-6.2,6.2,2.8,6.2,6.2,6.2Z"/>
      <path class="st0" d="M997.3,85.2h-356.3c-4.6,0-8.8,1.9-11.8,4.9s-4.9,7.2-4.9,11.8v59.7c0,4.6,1.9,8.8,4.9,11.8s7.2,4.9,11.8,4.9h55.7c4.8,0,9.2,2,12.4,5.1s5.1,7.6,5.1,12.4v480h-.9V195.7c0-4.6-1.9-8.8-4.9-11.8s-7.2-4.9-11.8-4.9h-55.7c-4.8,0-9.2-2-12.4-5.1s-5.1-7.6-5.1-12.4v-59.7c0-4.8,2-9.2,5.1-12.4s7.6-5.1,12.4-5.1h356.3s0,.9,0,.9Z"/>
      <path class="st1" d="M997.3,70.4c7.9,0,14.3,6.4,14.3,14.3s-6.4,14.3-14.3,14.3-14.3-6.4-14.3-14.3,6.4-14.3,14.3-14.3Z"/>
      <path class="st1" d="M713.9,661.4c7.9,0,14.3,6.4,14.3,14.3s-6.4,14.3-14.3,14.3-14.3-6.4-14.3-14.3,6.4-14.3,14.3-14.3Z"/>
      <path class="st4" d="M509.9,905.9v-222.7c0-5.2,2.1-9.9,5.5-13.3s8.1-5.5,13.3-5.5h103c4.2,0,8.1-1.7,10.9-4.5,2.8-2.8,4.5-6.6,4.5-10.9V202.7h3.4v446.3c0,5.2-2.1,9.9-5.5,13.3s-8.1,5.5-13.3,5.5h-103c-4.2,0-8.1,1.7-10.9,4.5-2.8,2.8-4.5,6.6-4.5,10.9v222.7h-3.4Z"/>
      <path class="st2" d="M497.3,905.9c0-7.9,6.4-14.3,14.3-14.3s14.3,6.4,14.3,14.3-6.4,14.3-14.3,14.3-14.3-6.4-14.3-14.3Z"/>
      <path class="st2" d="M642.5,202.7c0-3.4,2.8-6.2,6.2-6.2s6.2,2.8,6.2,6.2-2.8,6.2-6.2,6.2-6.2-2.8-6.2-6.2Z"/>
      <path class="st4" d="M1033.3,295H251.8c-4.2,0-8.1,1.7-10.9,4.5-2.8,2.8-4.5,6.6-4.5,10.9v165.5c0,4.2,1.7,8.1,4.5,10.9,2.8,2.8,6.6,4.5,10.9,4.5h201.4c4.2,0,8.1-1.7,10.9-4.5,2.8-2.8,4.5-6.6,4.5-10.9v-59.7c0-5.2,2.1-9.9,5.5-13.3s8.1-5.5,13.3-5.5h83.6c5.2,0,9.9,2.1,13.3,5.5s5.5,8.1,5.5,13.3v312.3h-3.4v-312.3c0-4.2-1.7-8.1-4.5-10.9-2.8-2.8-6.6-4.5-10.9-4.5h-83.6c-4.2,0-8.1,1.7-10.9,4.5-2.8,2.8-4.5,6.6-4.5,10.9v59.7c0,5.2-2.1,9.9-5.5,13.3s-8.1,5.5-13.3,5.5h-201.4c-5.2,0-9.9-2.1-13.3-5.5-3.4-3.4-5.5-8.1-5.5-13.3v-165.5c0-5.2,2.1-9.9,5.5-13.3s8.1-5.5,13.3-5.5h781.5v3.4h0Z"/>
      <path class="st2" d="M588.1,722.3c3.4,0,6.2,2.8,6.2,6.2s-2.8,6.2-6.2,6.2-6.2-2.8-6.2-6.2,2.8-6.2,6.2-6.2Z"/>
      <path class="st2" d="M1033.3,284.4c4.9,0,8.9,4,8.9,8.9s-4,8.9-8.9,8.9-8.9-4-8.9-8.9,4-8.9,8.9-8.9Z"/>
      <path class="st0" d="M941,729v-386.2c0-4.6-1.9-8.8-4.9-11.8-3-3-7.2-4.9-11.8-4.9h-89.6c-4.6,0-8.8,1.9-11.8,4.9-3,3-4.9,7.2-4.9,11.8v95.6c0,4.8-2,9.2-5.1,12.4s-7.6,5.1-12.4,5.1h-255.3c-4.6,0-8.8,1.9-11.8,4.9s-4.9,7.2-4.9,11.8v91.6c0,4.8-2,9.2-5.1,12.4s-7.6,5.1-12.4,5.1H71v-.9h440.1c4.6,0,8.8-1.9,11.8-4.9s4.9-7.2,4.9-11.8v-91.6c0-4.8,2-9.2,5.1-12.4s7.6-5.1,12.4-5.1h255.3c4.6,0,8.8-1.9,11.8-4.9s4.9-7.2,4.9-11.8v-95.6c0-4.8,2-9.2,5.1-12.4s7.6-5.1,12.4-5.1h89.6c4.8,0,9.2,2,12.4,5.1,3.2,3.2,5.1,7.6,5.1,12.4v386.2h-.9Z"/>
      <path class="st1" d="M71,572.3c4.9,0,8.9,4,8.9,8.9s-4,8.9-8.9,8.9-8.9-4-8.9-8.9,4-8.9,8.9-8.9Z"/>
      <path class="st1" d="M941.4,720.1c4.9,0,8.9,4,8.9,8.9s-4,8.9-8.9,8.9-8.9-4-8.9-8.9,4-8.9,8.9-8.9Z"/>
      <path class="st3" d="M333.6,0C344,0,352.4,8.4,352.4,18.8s-8.4,18.8-18.8,18.8-18.8-8.4-18.8-18.8S323.3,0,333.6,0Z"/>
      <path class="st1" d="M588.1,504.6c7.9,0,14.3,6.4,14.3,14.3s-6.4,14.3-14.3,14.3-14.3-6.4-14.3-14.3,6.4-14.3,14.3-14.3Z"/>
      <path class="st1" d="M713.9,284.4c4.9,0,8.9,4,8.9,8.9s-4,8.9-8.9,8.9-8.9-4-8.9-8.9,4-8.9,8.9-8.9Z"/>
    </g>
  </g>
</svg>